<?xml version="1.0" ?><!DOCTYPE svg  PUBLIC '-//W3C//DTD SVG 1.1//EN'  'http://www.w3.org/Graphics/SVG/1.1/DTD/svg11.dtd'><svg height="512px" style="enable-background:new 0 0 512 512;" version="1.1" viewBox="0 0 512 512" width="512px" xml:space="preserve" xmlns="http://www.w3.org/2000/svg" xmlns:xlink="http://www.w3.org/1999/xlink"><g id="comp_x5F_382-wordpress"><g><path d="    M256,36.001c-121.266,0-220,98.645-220,219.999c0,121.267,98.733,219.999,220,219.999S475.999,377.267,475.999,256    C475.999,134.646,377.267,36.001,256,36.001z M58.178,256c0-28.653,6.121-55.887,17.121-80.459l94.386,258.499    C103.685,401.927,58.178,334.241,58.178,256z M256,453.819c-19.428,0-38.145-2.837-55.888-8.07l59.346-172.45l60.767,166.595    c0.444,0.978,0.887,1.864,1.419,2.751C301.153,449.83,279.063,453.819,256,453.819z M283.232,163.3    c11.887-0.621,22.622-1.863,22.622-1.863c10.646-1.242,9.404-16.944-1.242-16.323c0,0-32.023,2.484-52.693,2.484    c-19.428,0-52.073-2.484-52.073-2.484c-10.644-0.621-11.886,15.702-1.242,16.323c0,0,10.114,1.242,20.76,1.863l30.781,84.45    l-43.29,129.782L134.823,163.3c11.888-0.621,22.621-1.863,22.621-1.863c10.645-1.242,9.403-16.944-1.242-16.323    c0,0-32.024,2.484-52.693,2.484c-3.726,0-8.073-0.089-12.774-0.267c35.395-53.67,96.16-89.152,165.266-89.152    c51.451,0,98.377,19.692,133.595,51.895c-0.887-0.088-1.686-0.178-2.573-0.178c-19.426,0-33.175,16.945-33.175,35.129    c0,16.323,9.402,30.072,19.426,46.396c7.539,13.129,16.322,30.072,16.322,54.557c0,16.943-6.476,36.546-15.079,63.959    l-19.694,65.911L283.232,163.3L283.232,163.3z M355.442,426.942l60.411-174.668c11.269-28.209,15.082-50.742,15.082-70.879    c0-7.274-0.444-14.016-1.331-20.315c15.435,28.21,24.216,60.501,24.216,94.92C453.82,329.01,414.258,392.7,355.442,426.942z" style="fill:none;stroke:#000000;stroke-width:10;stroke-linecap:round;stroke-linejoin:round;stroke-miterlimit:10;"/></g></g><g id="Layer_1"/></svg>