<svg width="20" height="22" viewBox="0 0 20 22" fill="none" xmlns="http://www.w3.org/2000/svg">
<path d="M10 20.1667C13.4417 20.1667 16.25 17.0775 16.25 13.2917V8.70837C16.25 4.92254 13.4417 1.83337 10 1.83337C6.55833 1.83337 3.75 4.92254 3.75 8.70837V13.2917C3.75 17.0775 6.55833 20.1667 10 20.1667Z" stroke="#833B61" stroke-width="1.5" stroke-linecap="round" stroke-linejoin="round"/>
<path d="M10 5.50004C9.30833 5.50004 8.75 6.11421 8.75 6.87504V8.70837C8.75 9.46921 9.30833 10.0834 10 10.0834C10.6833 10.0834 11.25 9.46921 11.25 8.70837V6.87504C11.25 6.11421 10.6833 5.50004 10 5.50004ZM10 5.50004V1.83337" stroke="#833B61" stroke-width="1.5" stroke-linecap="round" stroke-linejoin="round"/>
</svg>
