<svg width="20" height="21" viewBox="0 0 20 21" fill="none" xmlns="http://www.w3.org/2000/svg">
<path d="M4.47679 20.4999H0.330357V7.14718H4.47679V20.4999ZM2.40134 5.32575C1.07545 5.32575 0 4.22754 0 2.90164C9.49017e-09 2.26477 0.252998 1.65398 0.703336 1.20364C1.15367 0.753303 1.76446 0.500305 2.40134 0.500305C3.03821 0.500305 3.649 0.753303 4.09934 1.20364C4.54968 1.65398 4.80268 2.26477 4.80268 2.90164C4.80268 4.22754 3.72679 5.32575 2.40134 5.32575ZM19.9955 20.4999H15.858V13.9999C15.858 12.4508 15.8268 10.4641 13.7022 10.4641C11.5464 10.4641 11.2161 12.1472 11.2161 13.8883V20.4999H7.07411V7.14718H11.0509V8.96861H11.1089C11.6625 7.9195 13.0147 6.81236 15.0321 6.81236C19.2286 6.81236 20 9.57575 20 13.165V20.4999H19.9955Z" fill="#B3A7DF" fill-opacity="0.5"/>
</svg>
