<svg width="20" height="15" viewBox="0 0 20 15" fill="none" xmlns="http://www.w3.org/2000/svg">
<path d="M8.05556 6.77336C9.15972 6.18405 9.73611 5.29233 9.73611 3.90435C9.73611 1.16716 7.90972 0.500305 5.80208 0.500305H0V14.2405H5.96528C8.20139 14.2405 10.3021 13.0425 10.3021 10.2511C10.3021 8.52578 9.56944 7.25024 8.05556 6.77336ZM2.70486 2.84592H5.24306C6.21875 2.84592 7.09722 3.1522 7.09722 4.41612C7.09722 5.58311 6.41319 6.05223 5.44792 6.05223H2.70486V2.84592ZM5.59722 11.9066H2.70486V8.12257H5.65278C6.84375 8.12257 7.59722 8.67699 7.59722 10.0844C7.59722 11.4723 6.69792 11.9066 5.59722 11.9066ZM18.0451 2.57452H13.0556V1.22143H18.0451V2.57452ZM20 9.40975C20 6.46707 18.4583 4.01291 15.6632 4.01291C12.9479 4.01291 11.1042 6.29261 11.1042 9.27793C11.1042 12.3757 12.8507 14.5003 15.6632 14.5003C17.7917 14.5003 19.1701 13.4302 19.8333 11.1544H17.6736C17.441 12.0035 16.4826 12.4532 15.7396 12.4532C14.3056 12.4532 13.5521 11.515 13.5521 9.92152H19.9792C19.9896 9.75868 20 9.58422 20 9.40975ZM13.5556 8.20011C13.6354 6.89355 14.4132 6.07549 15.5868 6.07549C16.816 6.07549 17.434 6.88192 17.5382 8.20011H13.5556Z" fill="#B3A7DF" fill-opacity="0.5"/>
</svg>
