<svg width="20" height="20" viewBox="0 0 20 20" fill="none" xmlns="http://www.w3.org/2000/svg">
<path d="M20 2.14286V17.8571C20 19.0406 19.0406 20 17.8571 20H2.14286C0.959375 20 0 19.0406 0 17.8571V2.14286C0 0.959375 0.959375 0 2.14286 0H17.8571C19.0406 0 20 0.959375 20 2.14286ZM13.5714 11.7857C12.9213 11.7857 12.3293 12.034 11.8847 12.4407L8.85085 10.6204C8.95446 10.2133 8.95446 9.78669 8.85085 9.3796L11.8847 7.55929C12.3293 7.96603 12.9213 8.21429 13.5714 8.21429C14.9521 8.21429 16.0714 7.095 16.0714 5.71429C16.0714 4.33357 14.9521 3.21429 13.5714 3.21429C12.1907 3.21429 11.0714 4.33357 11.0714 5.71429C11.0714 5.92844 11.0984 6.13629 11.1491 6.33469L8.11527 8.155C7.67067 7.74826 7.07866 7.5 6.42857 7.5C5.04786 7.5 3.92857 8.61929 3.92857 10C3.92857 11.3807 5.04786 12.5 6.42857 12.5C7.07866 12.5 7.67067 12.2517 8.11531 11.845L11.1492 13.6654C11.0974 13.8681 11.0713 14.0765 11.0715 14.2858C11.0715 15.6665 12.1908 16.7858 13.5715 16.7858C14.9522 16.7858 16.0715 15.6665 16.0715 14.2858C16.0714 12.905 14.9521 11.7857 13.5714 11.7857Z" fill="#B3A7DF" fill-opacity="0.5"/>
</svg>
